<svg xmlns="http://www.w3.org/2000/svg" viewBox="0 0 300 300" width="100" height="100">
  <rect width="100%" height="100%" fill="#000000" />
  <path fill="#FFFFFF" d="M148.5625,50 C90.1145822,50 50,90.1145822 50,148.5625 C50,207.010417 90.1145822,247.125 148.5625,247.125 C207.010417,247.125 247.125,207.010417 247.125,148.5625 C247.125,90.1145822 207.010417,50 148.5625,50 M148.5625,270 C76.2891774,270 16,209.710823 16,137.4375 C16,80.2470732 61.0103266,32 118.3125,32 C152.862694,32 183.0976,49.2448771 199.335406,76.3166894 L76.3166894,199.335406 C49.2448771,183.0976 32,152.862694 32,118.3125 C32,61.0103266 80.2470732,16 137.4375,16 C209.710823,16 270,76.2891774 270,148.5625 C270,183.501465 252.755123,214.058327 225.071213,235.392161 L235.392161,225.071213 C257.731516,204.164451 270,177.450295 270,148.5625 C270,76.2891774 209.710823,16 137.4375,16 C61.0103266,16 16,61.0103266 16,137.4375 C16,209.710823 76.2891774,270 148.5625,270" />
</svg>